<?xml version="1.0" encoding="UTF-8"?>
<svg id="Layer_1" xmlns="http://www.w3.org/2000/svg" version="1.1" viewBox="0 0 1194.38 1194.38">
  <!-- Generator: Adobe Illustrator 30.6.0, SVG Export Plug-In . SVG Version: 2.1.4 Build 109)  -->
  <defs>
    <style>
      .st0 {
        fill: #fff;
      }

      .st1 {
        fill: #8633ff;
      }

      .st2 {
        fill: #47e727;
      }
    </style>
  </defs>
  <path d="M244.22,0h705.95c134.79,0,244.22,109.43,244.22,244.22v705.94c0,134.79-109.43,244.22-244.22,244.22H244.22c-134.79,0-244.22-109.43-244.22-244.22V244.22C0,109.43,109.43,0,244.22,0Z"/>
  <polygon class="st0" points="943.19 255.75 334.95 255.75 252.41 255.75 252.41 338.29 252.41 515.27 334.95 515.27 334.95 338.29 943.19 338.29 943.19 255.75"/>
  <polygon class="st2" points="514.75 515.27 514.75 597.82 252.41 597.82 252.41 604.47 252.41 680.36 252.41 774.79 334.95 774.79 334.95 680.36 597.29 680.36 597.29 597.82 943.19 597.82 943.19 515.27 514.75 515.27"/>
  <polygon class="st1" points="943.19 774.79 679.83 774.79 597.29 774.79 597.29 857.34 252.41 857.34 252.41 939.88 597.29 939.88 679.83 939.88 679.83 857.34 943.19 857.34 943.19 774.79"/>
</svg>